<?xml version="1.0" encoding="UTF-8"?>
<svg width="17px" height="20px" viewBox="0 0 17 20" version="1.1" xmlns="http://www.w3.org/2000/svg" xmlns:xlink="http://www.w3.org/1999/xlink">
    <!-- Generator: Sketch 63.1 (92452) - https://sketch.com -->
    <title>编组</title>
    <desc>Created with Sketch.</desc>
    <g id="Page-1" stroke="none" stroke-width="1" fill="none" fill-rule="evenodd">
        <g id="为本人" transform="translate(-22.000000, -952.000000)">
            <polygon id="Rectangle" fill="#FFFFFF" points="1 437 376 437 376 992 1 992"></polygon>
            <g id="编组" transform="translate(22.000000, 952.000000)" fill="#4CA2FE" fill-rule="nonzero">
                <path d="M8.55629148,20 L8.29018673,19.8406374 C7.98314277,19.6613546 0.685731501,15.3286853 0.0511739762,9.11354582 L0.0511739762,9.09362549 C0.0409391809,8.97410357 0.0307043857,8.85458166 0.0204695905,8.74501992 L0.0102347952,8.65537848 C1.77635684e-14,8.50597609 1.77635684e-14,8.38645418 1.77635684e-14,8.26693227 C1.77635684e-14,3.70517928 3.80734501,-1.77635684e-15 8.49488269,-1.77635684e-15 C9.84587609,-1.77635684e-15 11.1456955,0.298804785 12.3431669,0.896414336 C12.5990369,1.02589641 12.69115,1.32470119 12.5683325,1.56374502 C12.4398326,1.8070351 12.1342876,1.90467113 11.882601,1.78286854 C10.8284167,1.26494025 9.69235412,0.996015937 8.49488269,0.996015937 C4.37025893,0.996015937 1.02347984,4.25298805 1.02347984,8.26693227 C1.02347984,8.36653387 1.02347984,8.47609561 1.03371464,8.6055777 L1.03371464,8.68525896 C1.04394943,8.78486057 1.04394943,8.88446215 1.05418423,8.99402391 L1.05418423,9.01394422 C1.57615895,14.1135458 7.23600248,17.998008 8.53582187,18.8346613 C9.85611088,17.9780876 15.6490068,13.9342629 15.945816,8.68525896 L15.945816,8.61553785 C15.9560507,8.48605578 15.9560507,8.37649402 15.9560507,8.26693227 C15.9560507,6.23505975 15.1167973,4.35258963 13.6020471,2.96812748 C13.3973511,2.77888445 13.3871163,2.46015936 13.5815775,2.26095617 C13.7760387,2.06175299 14.1035522,2.05179283 14.3082482,2.24103586 C16.0276943,3.79482072 17,5.99601594 17,8.26693227 C17,8.38645418 17,8.50597609 16.9897654,8.65537848 L16.9897654,8.73505977 C16.8362434,11.4043825 15.3726672,14.1832669 12.7525588,16.752988 C10.7977123,18.6752988 8.90427462,19.8007968 8.82239624,19.8505976 L8.55629148,20 Z" id="路径"></path>
                <path d="M8.36507945,12.3684211 C6.13537366,12.3684211 4.31746036,10.5364372 4.31746036,8.28947368 C4.31746036,6.04251013 6.13537366,4.21052632 8.36507945,4.21052632 C10.5947853,4.21052632 12.4126985,6.04251013 12.4126985,8.28947368 C12.4126985,10.5364372 10.5947853,12.3684211 8.36507945,12.3684211 Z M8.36507945,5.22267207 C6.68777823,5.22267207 5.32183235,6.59919029 5.32183235,8.28947368 C5.32183235,9.97975709 6.68777825,11.3562753 8.36507945,11.3562753 C10.0423807,11.3562753 11.4083266,9.97975709 11.4083266,8.28947368 C11.4083266,6.59919027 10.0423807,5.22267207 8.36507945,5.22267207 Z" id="形状"></path>
            </g>
        </g>
    </g>
</svg>