<?xml version="1.0" encoding="UTF-8"?>
<svg width="17px" height="16px" viewBox="0 0 17 16" version="1.1" xmlns="http://www.w3.org/2000/svg" xmlns:xlink="http://www.w3.org/1999/xlink">
    <!-- Generator: Sketch 52.5 (67469) - http://www.bohemiancoding.com/sketch -->
    <title>形状</title>
    <desc>Created with Sketch.</desc>
    <g id="Page-1" stroke="none" stroke-width="1" fill="none" fill-rule="evenodd">
        <g id="为他人投保" transform="translate(-19.000000, -985.000000)" fill="#4CA2FE" fill-rule="nonzero">
            <g id="为谁投保-copy" transform="translate(0.000000, 812.000000)">
                <path d="M33.0689667,174.714281 L34.2413833,174.714281 C35.2126409,174.714281 36,175.481791 36,176.428562 C36,176.428568 36,176.428573 36,176.428578 L36,187.285719 C36,188.232491 35.2126409,189 34.2413832,189 C34.2413832,189 34.2413831,189 34.2413831,189 L20.7586169,189 C19.7873591,189 19,188.232491 19,187.285719 C19,187.285719 19,187.285719 19,187.285719 L19,176.428578 L19,176.428563 C18.9999999,175.481791 19.7873591,174.714282 20.7586168,174.714282 C20.7586221,174.714282 20.7586275,174.714282 20.7586328,174.714282 L21.9310494,174.714282 L21.9310494,175.857141 L20.7586328,175.857141 C20.4348834,175.857141 20.1724325,176.112975 20.1724325,176.428563 C20.1724325,176.428568 20.1724325,176.428573 20.1724325,176.428578 L20.1724325,187.285719 C20.1724325,187.601306 20.4348834,187.857141 20.7586328,187.857141 L34.241399,187.857141 C34.5651484,187.857149 34.8276057,187.601322 34.8276153,187.285735 C34.8276153,187.285729 34.8276153,187.285724 34.8276153,187.285719 L34.8276153,176.428578 L34.8276153,176.428563 C34.8276153,176.112975 34.5651644,175.857141 34.2414151,175.857141 C34.2414044,175.857141 34.2413937,175.857141 34.241383,175.857141 L33.0689665,175.857141 L33.0689665,174.714281 L33.0689667,174.714281 Z M29.5517331,174.714281 L29.5517331,175.857141 L25.4482832,175.857141 L25.4482832,174.714281 L29.5517331,174.714281 Z M23.6896344,173 C24.0133837,172.999991 24.275841,173.255819 24.2758506,173.571406 C24.2758506,173.571411 24.2758506,173.571417 24.2758506,173.571422 L24.2758506,177 C24.2758506,177.315587 24.0133998,177.571422 23.6896504,177.571422 C23.365901,177.571422 23.1034501,177.315587 23.1034501,177 L23.1034501,173.571422 C23.1034501,173.255834 23.365901,173 23.6896504,173 L23.6896344,173 Z M31.3103499,173 C31.6340993,173 31.8965502,173.255834 31.8965502,173.571422 C31.8965502,173.571422 31.8965502,173.571422 31.8965502,173.571422 L31.8965502,177 C31.8965502,177.315587 31.6340993,177.571422 31.3103499,177.571422 C30.9866005,177.571422 30.7241496,177.315587 30.7241496,177 L30.7241496,173.571422 C30.7241496,173.255834 30.9866005,173 31.3103499,173 C31.3103499,173 31.3103499,173 31.3103499,173 Z M23.1034501,181 L23.6896504,181 C24.0133998,180.999991 24.2758571,181.255819 24.2758667,181.571406 C24.2758667,181.571411 24.2758667,181.571417 24.2758667,181.571422 L24.2758667,182.142859 C24.2758667,182.458447 24.0134158,182.714281 23.6896664,182.714281 C23.6896611,182.714281 23.6896557,182.714281 23.6896504,182.714281 L23.1034501,182.714281 C22.7797007,182.714281 22.5172498,182.458447 22.5172498,182.142859 C22.5172498,182.142859 22.5172498,182.142859 22.5172498,182.142859 L22.5172498,181.571406 L22.5172498,181.571422 C22.5172499,181.255841 22.7796911,181.000009 23.1034341,181 L23.1034501,181 Z M27.2069,181 L27.7931003,181 C28.1168497,180.999991 28.379307,181.255819 28.3793166,181.571406 C28.3793166,181.571411 28.3793166,181.571417 28.3793166,181.571422 L28.3793166,182.142859 C28.3793166,182.458447 28.1168657,182.714281 27.7931163,182.714281 C27.793111,182.714281 27.7931056,182.714281 27.7931003,182.714281 L27.2069,182.714281 C26.8831506,182.714281 26.6206997,182.458447 26.6206997,182.142859 C26.6206997,182.142859 26.6206997,182.142859 26.6206997,182.142859 L26.6206997,181.571406 L26.6206997,181.571422 C26.6206998,181.255841 26.883141,181.000009 27.206884,181 L27.2069,181 Z M31.3103499,181 L31.8965502,181 C32.2202996,180.999991 32.4827569,181.255819 32.4827665,181.571406 C32.4827665,181.571411 32.4827665,181.571417 32.4827665,181.571422 L32.4827665,182.142859 C32.4827665,182.458447 32.2203156,182.714281 31.8965662,182.714281 C31.8965609,182.714281 31.8965555,182.714281 31.8965502,182.714281 L31.3103499,182.714281 C30.9866005,182.714281 30.7241496,182.458447 30.7241496,182.142859 C30.7241496,182.142859 30.7241496,182.142859 30.7241496,182.142859 L30.7241496,181.571406 L30.7241496,181.571422 C30.7241497,181.255841 30.9865909,181.000009 31.3103339,181 L31.3103499,181 Z M23.1034501,183.857141 L23.6896504,183.857141 C24.0133998,183.857132 24.2758571,184.112959 24.2758667,184.428547 C24.2758667,184.428557 24.2758667,184.428568 24.2758667,184.428578 L24.2758667,185 C24.2758667,185.315587 24.0134158,185.571422 23.6896664,185.571422 C23.6896611,185.571422 23.6896557,185.571422 23.6896504,185.571422 L23.1034501,185.571422 C22.7797007,185.571422 22.5172498,185.315587 22.5172498,185 L22.5172498,184.428578 L22.5172498,184.428563 C22.5172498,184.112975 22.7797007,183.857141 23.1034501,183.857141 C23.1034554,183.857141 23.1034608,183.857141 23.1034661,183.857141 L23.1034501,183.857141 Z M27.2069,183.857141 L27.7931003,183.857141 C28.1168497,183.857132 28.379307,184.112959 28.3793166,184.428547 C28.3793166,184.428557 28.3793166,184.428568 28.3793166,184.428578 L28.3793166,185 C28.3793166,185.315587 28.1168657,185.571422 27.7931163,185.571422 C27.793111,185.571422 27.7931056,185.571422 27.7931003,185.571422 L27.2069,185.571422 C26.8831506,185.571422 26.6206997,185.315587 26.6206997,185 L26.6206997,184.428578 L26.6206997,184.428563 C26.6206997,184.112975 26.8831506,183.857141 27.2069,183.857141 C27.2069053,183.857141 27.2069107,183.857141 27.206916,183.857141 L27.2069,183.857141 Z M31.3103499,183.857141 L31.8965502,183.857141 C32.2202996,183.857132 32.4827569,184.112959 32.4827665,184.428547 C32.4827665,184.428557 32.4827665,184.428568 32.4827665,184.428578 L32.4827665,185 C32.4827665,185.315587 32.2203156,185.571422 31.8965662,185.571422 C31.8965609,185.571422 31.8965555,185.571422 31.8965502,185.571422 L31.3103499,185.571422 C30.9866005,185.571422 30.7241496,185.315587 30.7241496,185 L30.7241496,184.428578 L30.7241496,184.428563 C30.7241496,184.112975 30.9866005,183.857141 31.3103499,183.857141 C31.3103552,183.857141 31.3103606,183.857141 31.3103659,183.857141 L31.3103499,183.857141 Z" id="形状"></path>
            </g>
        </g>
    </g>
</svg>