<?xml version="1.0" encoding="UTF-8"?>
<svg width="15px" height="15px" viewBox="0 0 15 15" version="1.1" xmlns="http://www.w3.org/2000/svg" xmlns:xlink="http://www.w3.org/1999/xlink">
    <!-- Generator: Sketch 52.5 (67469) - http://www.bohemiancoding.com/sketch -->
    <title>路径</title>
    <desc>Created with Sketch.</desc>
    <g id="Page-1" stroke="none" stroke-width="1" fill="none" fill-rule="evenodd">
        <g id="短信验证码" transform="translate(-298.000000, -208.000000)" fill="#BEC1C8">
            <g id="验证码" transform="translate(0.000000, 1.000000)">
                <g id="叉" transform="translate(298.000000, 207.000000)">
                    <path d="M14.6478992,14.6341588 C14.6478992,14.6343976 14.6478992,14.6345171 14.6470463,14.6348924 C14.1772532,15.1053315 13.4136545,15.1060484 12.9431296,14.6357453 L7.50212454,9.20536609 L2.07213802,14.6458977 C2.07128513,14.6462559 2.07128513,14.6467507 2.07128513,14.6467507 C1.60075853,15.1174282 0.837159857,15.1177866 0.366634926,14.6476036 C-0.105580285,14.176686 -0.106313741,13.4131545 0.364212707,12.9418851 L5.79421589,7.50110347 L0.354044349,2.07060755 C-0.117334057,1.60004837 -0.118170863,0.836533507 0.352475021,0.365355846 C0.352475021,0.364997612 0.352475021,0.364758772 0.35320851,0.364502895 C0.823001652,-0.105459479 1.58586687,-0.105817897 2.05724195,0.364383484 L7.49741349,5.79474604 L12.9282335,0.353981033 L12.928967,0.353128083 C13.3996119,-0.1174311 14.1623588,-0.117907879 14.6337339,0.35288926 C15.1058291,0.823448442 15.1058291,1.5869633 14.6353032,2.05849104 L9.20530002,7.49903933 L14.646305,12.9294019 C15.1168483,13.3999611 15.1184169,14.1633742 14.6478914,14.6341701 L14.6478992,14.6341588 Z" id="路径"></path>
                </g>
            </g>
        </g>
    </g>
</svg>