<?xml version="1.0" encoding="UTF-8"?>
<svg width="12px" height="12px" viewBox="0 0 12 12" version="1.1" xmlns="http://www.w3.org/2000/svg" xmlns:xlink="http://www.w3.org/1999/xlink">
    <!-- Generator: Sketch 52.5 (67469) - http://www.bohemiancoding.com/sketch -->
    <title>下  拉</title>
    <desc>Created with Sketch.</desc>
    <g id="Page-1" stroke="none" stroke-width="1" fill="none" fill-rule="evenodd">
        <g id="未获取到保单号" transform="translate(-110.000000, -488.000000)" fill="#4CA2FE">
            <g id="出险人信息-copy-2" transform="translate(36.000000, 374.000000)">
                <g id="分组-2" transform="translate(73.000000, 110.000000)">
                    <g id="下--拉" transform="translate(6.500000, 9.500000) rotate(-180.000000) translate(-6.500000, -9.500000) translate(0.000000, 3.000000)">
                        <g id="分组" transform="translate(0.246094, 0.219461)">
                            <path d="M5.18391228,0.281812828 C5.34591247,0.119812639 5.56191272,-0.0241875281 5.77191297,0.0118125137 C5.98191321,-0.0241875281 6.17391343,0.13781266 6.33591362,0.281812828 L11.3099194,5.26781863 C11.5679197,5.52581893 11.5679197,5.9278194 11.3099194,6.1858197 C11.0519191,6.44382 10.6499186,6.44382 10.3919183,6.1858197 L5.76591296,1.43381417 L1.12190756,6.17981969 C0.863907255,6.43781999 0.461906787,6.43781999 0.203906487,6.17981969 C-0.0540938129,5.92181939 -0.0540938129,5.51981892 0.203906487,5.26181862 L5.18391228,0.281812828 Z" id="路径"></path>
                            <path d="M5.18391228,4.90781821 C5.34591247,4.74581802 5.56191272,4.60181785 5.77191297,4.6378179 C5.98191321,4.60181785 6.17391343,4.76381804 6.33591362,4.90781821 L11.3099194,9.89382401 C11.5679197,10.1518243 11.5679197,10.5538248 11.3099194,10.8118251 C11.0519191,11.0698254 10.6499186,11.0698254 10.3919183,10.8118251 L5.76591296,6.05981955 L1.12190756,10.8058251 C0.863907255,11.0638254 0.461906787,11.0638254 0.203906487,10.8058251 C-0.0540938129,10.5478248 -0.0540938129,10.1458243 0.203906487,9.88782401 L5.18391228,4.90781821 Z" id="路径"></path>
                        </g>
                    </g>
                </g>
            </g>
        </g>
    </g>
</svg>