<?xml version="1.0" encoding="UTF-8"?>
<svg width="17px" height="13px" viewBox="0 0 17 13" version="1.1" xmlns="http://www.w3.org/2000/svg" xmlns:xlink="http://www.w3.org/1999/xlink">
    <!-- Generator: Sketch 52.5 (67469) - http://www.bohemiancoding.com/sketch -->
    <title>邮箱</title>
    <desc>Created with Sketch.</desc>
    <g id="Page-1" stroke="none" stroke-width="1" fill="none" fill-rule="evenodd">
        <g id="为他人投保" transform="translate(-19.000000, -1041.000000)" fill="#4CA2FE">
            <g id="为谁投保-copy" transform="translate(0.000000, 812.000000)">
                <g id="邮箱" transform="translate(19.000000, 229.000000)">
                    <path d="M2,0 L15,0 C16.1045695,-2.02906125e-16 17,0.8954305 17,2 L17,11 C17,12.1045695 16.1045695,13 15,13 L2,13 C0.8954305,13 1.3527075e-16,12.1045695 0,11 L0,2 C-1.3527075e-16,0.8954305 0.8954305,2.02906125e-16 2,0 Z M2,1 C1.44771525,1 1,1.44771525 1,2 L1,11 C1,11.5522847 1.44771525,12 2,12 L15,12 C15.5522847,12 16,11.5522847 16,11 L16,2 C16,1.44771525 15.5522847,1 15,1 L2,1 Z" id="合并形状"></path>
                    <path d="M8.64054446,7.13018149 L13.6291651,4.25 C13.8683114,4.11192881 14.1741066,4.19386639 14.3121778,4.4330127 C14.450249,4.67215901 14.3683114,4.97795422 14.1291651,5.1160254 L8.9330127,8.1160254 C8.84094386,8.16918138 8.73899651,8.18972831 8.64054446,8.1812497 C8.5420924,8.18972831 8.44014506,8.16918138 8.34807621,8.1160254 L3.15192379,5.1160254 C2.91277748,4.97795422 2.8308399,4.67215901 2.96891109,4.4330127 C3.10698227,4.19386639 3.41277748,4.11192881 3.65192379,4.25 L8.64054446,7.13018149 Z" id="合并形状"></path>
                </g>
            </g>
        </g>
    </g>
</svg>