<?xml version="1.0" encoding="UTF-8"?>
<svg width="18px" height="13px" viewBox="0 0 18 13" version="1.1" xmlns="http://www.w3.org/2000/svg" xmlns:xlink="http://www.w3.org/1999/xlink">
    <!-- Generator: Sketch 52.5 (67469) - http://www.bohemiancoding.com/sketch -->
    <title>证件@1x</title>
    <desc>Created with Sketch.</desc>
    <g id="Page-1" stroke="none" stroke-width="1" fill="none" fill-rule="evenodd">
        <g id="为他人投保" transform="translate(-19.000000, -932.000000)">
            <g id="为谁投保-copy" transform="translate(0.000000, 812.000000)">
                <g id="证件" transform="translate(18.000000, 117.000000)">
                    <rect id="矩形" fill="#D8D8D8" opacity="0" x="0" y="0" width="18" height="18"></rect>
                    <g id="身份证" transform="translate(1.000000, 3.000000)" fill="#4CA2FE" fill-rule="nonzero">
                        <g id="分组">
                            <path d="M17.9907305,6.06666667 L17.9907305,10.9987778 C17.9896219,12.1024517 17.0954222,12.9969453 15.9920068,12.9980669 L2.00057143,12.9980669 C0.897245338,12.9969425 0.00304595415,12.102464 0.00192472198,10.9986854 L0.00192472198,2.00120675 C0.00304875962,0.897532938 0.89723302,0.00303925521 2.00064842,0.00191765403 L15.991976,0.00191765403 L15.9920992,0.00191765403 C17.0954099,0.00304206161 17.9896093,0.897520616 17.9907305,2.00129917 L17.9907305,3.46666667 L16.9912705,3.46666667 L16.9912732,2.00128531 C16.9905557,1.44954621 16.5436214,1.00239512 15.991993,1.00157145 L2.00077314,1.00157145 C1.44914474,1.00229076 1.00208896,1.44947536 1.0013882,2.00135616 L1.0013882,10.9987886 C1.00208879,11.5505277 1.4490231,11.9976788 2.0006515,11.9985025 L15.9918713,11.9985025 C16.5434997,11.9977662 16.990538,11.5505816 16.9912563,10.9987008 L16.9912656,6.06666667 L17.9907305,6.06666667 Z" id="合并形状"></path>
                            <path d="M14.1037468,6.89588389 C14.6434096,6.43702701 14.9925865,5.76222536 14.9925865,5.00051777 C14.9925865,3.6224731 13.8717223,2.50122156 12.4941126,2.50122156 C11.1165044,2.50122156 9.99585423,3.62247156 9.99585423,5.00051777 C9.99585423,5.76222536 10.3455562,6.43702547 10.8852359,6.89588389 C9.76507237,7.47981801 8.99643695,8.65054502 8.99643695,9.99904858 C8.99643695,10.2751199 9.22019281,10.4989325 9.49615637,10.4989325 C9.77213687,10.4989325 9.99587579,10.275103 9.99587579,9.99904858 C9.99587579,8.62100391 11.1167569,7.49976777 12.4943343,7.49976777 C13.8719071,7.49976777 14.9928082,8.62100083 14.9928082,9.99904858 C14.9928082,9.99904858 14.9928082,9.99904858 14.9928082,9.99904858 C14.9928082,10.2751199 15.2165641,10.4989325 15.4925276,10.4989325 C15.7685081,10.4989325 15.992247,10.275103 15.992247,9.99904858 C15.992247,9.99904858 15.992247,9.99904858 15.992247,9.99904858 C15.9920894,8.65053424 15.2239581,7.47979028 14.103756,6.89588389 L14.1037468,6.89588389 Z M10.995136,5.00050237 C10.995136,4.17232227 11.6662635,3.50100936 12.4941526,3.50100936 C13.3220417,3.50100936 13.9931523,4.1723577 13.9931523,5.00050237 C13.9931523,5.82868246 13.3220248,6.49999538 12.4941526,6.49999538 C11.6666484,6.49908408 10.9960814,5.82826197 10.995153,5.00057322 L10.995136,5.00050237 Z M8.49663131,3.50081682 L2.50042943,3.50081682 C2.22444893,3.50081682 2.00071001,3.72464633 2.00071001,4.00070071 C2.00071001,4.27675509 2.22446587,4.5005846 2.50042943,4.5005846 L8.49663131,4.5005846 C8.7726118,4.5005846 8.99635073,4.27675509 8.99635073,4.00070071 C8.99635073,3.72464633 8.77259487,3.50081682 8.49663131,3.50081682 Z M7.99691189,6.00011303 L2.50042943,6.00011303 C2.22444893,6.00011303 2.00071001,6.22394254 2.00071001,6.49999692 C2.00071001,6.7760513 2.22446587,6.99988081 2.50042943,6.99988081 L7.99691189,6.99988081 C8.27289239,6.99988081 8.49663131,6.7760513 8.49663131,6.49999692 C8.49663131,6.22394254 8.27287545,6.00011303 7.99691189,6.00011303 Z M6.49791223,8.49937844 L2.50043405,8.49937844 C2.22445355,8.49937844 2.00071463,8.72320794 2.00071463,8.99926232 C2.00071463,9.27531671 2.22447049,9.49914621 2.50043405,9.49914621 L6.49791223,9.49914621 C6.77389273,9.49914621 6.99763165,9.27531671 6.99763165,8.99926232 C6.99763165,8.72320794 6.77387579,8.49937844 6.49791223,8.49937844 Z" id="形状"></path>
                        </g>
                    </g>
                </g>
            </g>
        </g>
    </g>
</svg>