<?xml version="1.0" encoding="UTF-8"?>
<svg width="15px" height="17px" viewBox="0 0 15 17" version="1.1" xmlns="http://www.w3.org/2000/svg" xmlns:xlink="http://www.w3.org/1999/xlink">
    <!-- Generator: Sketch 52.5 (67469) - http://www.bohemiancoding.com/sketch -->
    <title>Shape</title>
    <desc>Created with Sketch.</desc>
    <g id="Page-1" stroke="none" stroke-width="1" fill="none" fill-rule="evenodd">
        <g id="为他人投保" transform="translate(-20.000000, -874.000000)" fill="#4CA2FE" fill-rule="nonzero">
            <path d="M34.9999828,889.984552 C34.9999828,887.819049 34.0348612,885.81316 32.3388362,884.426347 L32.3545376,884.426347 L32.049413,884.200898 C31.9586649,884.133882 31.8506335,884.098435 31.7370026,884.098435 C31.5751549,884.098435 31.4261394,884.16997 31.3283151,884.294542 C31.1559651,884.513196 31.1992265,884.82711 31.4247491,884.994363 C33.0427561,886.193448 33.9707432,888.012283 33.9707432,889.984524 C33.9707432,889.984558 33.9707432,889.984592 33.9707432,889.984626 L21.0292394,889.984626 C21.0292394,886.524109 23.9320541,883.708779 27.5000518,883.708779 C30.2600657,883.708779 32.5055031,881.5311 32.5055031,878.854381 C32.5055031,876.177662 30.2600484,874 27.5000518,874 C24.7401587,874 22.4948076,876.177662 22.4948076,878.854381 C22.4948076,879.790849 22.7723201,880.700205 23.297317,881.484103 C23.7497876,882.159709 24.3649238,882.714081 25.088759,883.101488 C23.6870944,883.565877 22.4320506,884.441484 21.5291024,885.590925 C20.528753,886.864377 20,888.383678 20,889.984621 L20,890.875 L35,890.875 L34.9999826,889.984621 C35,889.984604 35,889.98457 35,889.984536 L34.9999828,889.984552 Z M23.5240299,878.854408 C23.5240299,876.728096 25.3076661,874.998206 27.5000346,874.998206 C29.692524,874.998206 31.4762638,876.728096 31.4762638,878.854408 C31.4762638,880.980686 29.692524,882.710525 27.5000346,882.710525 C25.3076488,882.710525 23.5240299,880.980669 23.5240299,878.854408 Z" id="Shape"></path>
        </g>
    </g>
</svg>