<?xml version="1.0" encoding="UTF-8"?>
<svg width="16px" height="19px" viewBox="0 0 16 19" version="1.1" xmlns="http://www.w3.org/2000/svg" xmlns:xlink="http://www.w3.org/1999/xlink">
    <!-- Generator: Sketch 52.5 (67469) - http://www.bohemiancoding.com/sketch -->
    <title>手机号@2x</title>
    <desc>Created with Sketch.</desc>
    <g id="Page-1" stroke="none" stroke-width="1" fill="none" fill-rule="evenodd">
        <g id="为他人投保" transform="translate(-20.000000, -1094.000000)">
            <g id="手机号" transform="translate(18.000000, 1094.000000)">
                <rect id="矩形" fill="#FFFFFF" opacity="0" x="0" y="0" width="19" height="19"></rect>
                <path d="M17.0177666,7 L17.0177666,15.2536781 L17.018636,15.2548025 C17.018636,15.8069861 17.092966,16.4285082 16.9849016,16.9770426 C16.4814562,19.5218024 13.2235128,18.9294759 11.3243789,18.9294759 L4.46942422,18.9294759 C3.16636076,18.9294759 2.00824022,17.9413313 2.00824022,16.5994725 L2.00824022,3.26509658 C2.00824022,2.59248192 1.92276182,1.79971896 2.30241622,1.21019945 C2.92792449,0.23047398 3.85876609,2.11386464e-13 4.93855489,2.11386464e-13 L14.6197709,2.11386464e-13 C14.649628,0.00061813892 14.6794172,0.00305577398 14.7089666,0.00729880523 C15.9751447,0.119581054 17.0177666,1.03081226 17.0177666,2.36537268 L17.0177666,3 L15.952335,3 C15.9454873,2.07752688 15.8507551,1.13245048 14.6197634,1.05999307 L5.53805675,1.05999307 C4.59206421,1.05999307 3.07687275,0.924682488 3.07687275,2.3142654 L3.07687275,15.4650515 C3.07687275,16.1486179 2.91306048,17.2052609 3.61319275,17.6148376 C4.29331435,18.0171154 5.27761728,17.8635596 6.03721408,17.8635596 L13.8118487,17.8635596 C14.7238253,17.8635596 15.9491287,17.8489629 15.9491287,16.5837409 L15.9491287,7 L17.0177666,7 Z" id="合并形状" fill="#4CA2FE" fill-rule="nonzero"></path>
                <rect id="矩形" fill="#4CA2FE" x="16" y="13" width="1" height="2" rx="0.5"></rect>
                <rect id="矩形-copy-4" fill="#4CA2FE" x="16" y="9" width="1" height="2" rx="0.5"></rect>
                <path d="M10.9352661,15.6286318 L7.73678075,15.6286318 C7.44681596,15.6219872 7.21723942,15.3857816 7.22400422,15.1010518 C7.23054878,14.8256712 7.45633702,14.6039599 7.73678076,14.597533 L10.9352661,14.597533 C11.2252309,14.5908884 11.4657792,14.81632 11.4725461,15.1010518 C11.4793129,15.3857816 11.2497365,15.621987 10.9597696,15.6286318 C10.9516029,15.6288189 10.9434329,15.6288189 10.9352663,15.6286318 L10.9352661,15.6286318 Z M12.0485034,3 L6.45601275,3 C5.65296854,3.00231174 5.00251308,3.64089912 5.00000001,4.4294452 L5.00000001,11.0618278 L5,11.0618239 C5.00235294,11.8504789 5.65285333,12.4892393 6.45600853,12.491554 L12.0484992,12.491554 C12.8516544,12.4892415 13.5021568,11.8504852 13.504512,11.0618281 L13.504512,4.42944554 L13.504512,4.42944772 C13.5020013,3.64090164 12.8515456,3.0023131 12.0485013,3.00000042 L12.0485034,3 Z M12.4953407,10.4672514 L12.4953408,10.4672412 C12.4947164,10.9798557 12.0716821,11.3952602 11.5496426,11.3958845 L6.82081063,11.3958845 C6.32097921,11.3946502 5.91609815,10.9970793 5.91484161,10.5062718 L5.91484161,5.01053754 L5.91484163,5.01053451 C5.91734897,4.43403429 6.39266776,3.96730044 6.97976749,3.96484112 L11.4304342,3.96484112 C12.0175338,3.96730151 12.4928512,4.43403638 12.4953557,5.0105366 L12.4953407,10.4672514 Z" id="形状" fill="#4CA2FE" fill-rule="nonzero"></path>
            </g>
        </g>
    </g>
</svg>