<?xml version="1.0" encoding="UTF-8"?>
<svg width="17px" height="17px" viewBox="0 0 17 17" version="1.1" xmlns="http://www.w3.org/2000/svg" xmlns:xlink="http://www.w3.org/1999/xlink">
    <!-- Generator: Sketch 52.5 (67469) - http://www.bohemiancoding.com/sketch -->
    <title>刷新</title>
    <desc>Created with Sketch.</desc>
    <g id="Page-1" stroke="none" stroke-width="1" fill="none" fill-rule="evenodd">
        <g id="滑块成功" transform="translate(-295.000000, -223.000000)" fill="#FFFFFF" fill-rule="nonzero">
            <g id="刷新" transform="translate(295.000000, 223.000000)">
                <path d="M13.1725894,3.96540814 C10.6301655,1.49832609 6.53513138,1.46586449 4.03599954,3.88902789 C3.27445306,4.6280068 2.74117375,5.51783671 2.45977544,6.46113278 L0.236138442,6.44203772 C0.56476444,4.96026089 1.31450399,3.54722628 2.49913184,2.39770353 C5.83655516,-0.838909534 11.2874175,-0.793081385 14.6819076,2.50081686 L16.9468689,0.302975192 L17,6.21289697 L10.909596,6.16134031 L13.1725894,3.96540814 Z M16.7618937,10.5570236 C16.4332677,12.0388005 15.6835282,13.4518351 14.4989003,14.6013578 C11.1634448,17.8379709 5.71258247,17.7940523 2.31809237,14.500154 L0.0531311494,16.6960862 L0,10.7861644 L6.09040398,10.8377211 L3.82741058,13.0336532 C6.36983447,15.5007353 10.4648686,15.5331969 12.9640005,13.1100335 C13.7255469,12.3710546 14.2430837,11.4812247 14.5402246,10.5379286 L16.7618937,10.5570236 Z" id="形状"></path>
            </g>
        </g>
    </g>
</svg>