<?xml version="1.0" encoding="UTF-8"?>
<svg width="52px" height="52px" viewBox="0 0 52 52" version="1.1" xmlns="http://www.w3.org/2000/svg" xmlns:xlink="http://www.w3.org/1999/xlink">
    <!-- Generator: Sketch 52.5 (67469) - http://www.bohemiancoding.com/sketch -->
    <title>默认选中</title>
    <desc>Created with Sketch.</desc>
    <defs>
        <circle id="path-1" cx="25" cy="25" r="25"></circle>
    </defs>
    <g id="Page-1" stroke="none" stroke-width="1" fill="none" fill-rule="evenodd">
        <g id="选中默认头像" transform="translate(-35.000000, -548.000000)">
            <g id="为谁投保" transform="translate(0.000000, 409.000000)">
                <g id="我自己" transform="translate(36.000000, 140.000000)">
                    <g id="默认选中">
                        <mask id="mask-2" fill="white">
                            <use xlink:href="#path-1"></use>
                        </mask>
                        <circle stroke="#FFFFFF" cx="25" cy="25" r="25.5"></circle>
                        <g id="头像" mask="url(#mask-2)" fill="#4CA2FE" fill-rule="nonzero">
                            <g transform="translate(12.000000, 10.000000)" id="形状">
                                <path d="M12.6831632,5.48459301e-16 C16.8859767,5.48459301e-16 20.2927423,3.33749638 20.2927423,7.45535594 C20.2927423,11.5731846 16.8858262,14.9112908 12.6831632,14.9112908 C8.48096718,14.9112908 5.07416298,11.5732001 5.07416298,7.45535594 C5.07371892,3.33752726 8.4810791,5.48459301e-16 12.6831632,5.48459301e-16 Z M12.6831632,5.48459301e-16 C16.8859767,5.48459301e-16 20.2927423,3.33749638 20.2927423,7.45535594 C20.2927423,11.5731846 16.8858262,14.9112908 12.6831632,14.9112908 C8.48096718,14.9112908 5.07416298,11.5732001 5.07416298,7.45535594 C5.07371892,3.33752726 8.4810791,5.48459301e-16 12.6831632,5.48459301e-16 Z M9.82968295,17.3973872 L16.1714749,17.3973872 C21.6000077,17.3973872 26,21.7085351 26,27.0274213 L26,27.6480577 C26,29.7441346 21.5991586,29.8240636 16.1714749,29.8240636 L9.82968295,29.8240636 C4.40130449,29.8240636 0,29.8216953 0,27.6480577 L0,27.0274213 C-2.1938372e-15,21.7085737 4.40130449,17.3973872 9.82968295,17.3973872 Z"></path>
                            </g>
                        </g>
                    </g>
                </g>
            </g>
        </g>
    </g>
</svg>